<svg xmlns="http://www.w3.org/2000/svg" viewBox="0 0 1200 2730" fill="#003da8" aria-hidden="true">
<g transform="translate(0 2730) rotate(-90)">
<path transform="translate(0 954) scale(1,-1)" d="M135 474C130 474 127 478 127 485C127 791 133 843 141 869C149 898 171 899 171 912V920H20V912C20 899 42 898 50 869C58 841 64 789 64 460C64 131 58 79 50 51C42 22 20 21 20 8V0H171V8C171 21 149 22 141 51C133 77 127 129 127 435C127 439 129 442 132 442C137 442 138 436 147 399C217 124 224 80 224 51C224 22 205 22 205 8V0H356V8C356 22 329 22 313 51C298 79 273 166 189 494L257 774C286 889 332 899 332 912V920H198V912C198 900 249 896 249 830C249 818 246 805 243 789L186 554C168 482 152 474 135 474Z"/>
<path transform="translate(366 954) scale(1,-1)" d="M171 907C214 907 229 861 229 460C229 59 214 13 171 13C128 13 112 59 112 460C112 861 128 907 171 907ZM171 927C103 927 40 869 40 460C40 51 103 -7 171 -7C239 -7 302 51 302 460C302 869 239 927 171 927Z"/>
<path transform="translate(688 954) scale(1,-1)" d="M92 920C37 920 16 914 16 907C16 881 49 860 49 707V159C49 33 16 26 16 8V0H124V8C124 28 66 35 66 170V826C66 842 67 849 72 849C85 849 91 780 128 460C152 252 162 151 162 87C162 38 158 29 158 15C158 3 188 0 232 0C287 0 309 6 309 13C309 39 275 60 275 213V761C275 887 308 894 308 912V920H200V912C200 892 258 885 258 750V94C258 78 257 71 252 71C238 71 229 164 195 460C171 668 163 769 163 833C163 882 166 891 166 905C166 917 136 920 92 920Z"/>
<path transform="translate(1017 954) scale(1,-1)" d="M88 920C45 920 18 905 18 872C18 827 71 800 71 707C71 589 41 541 41 529C41 523 56 520 72 520C87 520 103 522 103 528C103 540 88 584 88 743C88 852 113 901 160 901C185 901 210 882 210 856C210 830 204 789 146 460C88 131 74 79 61 51C48 22 21 21 21 8V0H265C308 0 335 15 335 48C335 93 281 120 281 213C281 331 311 379 311 391C311 397 295 400 280 400C264 400 249 398 249 392C249 380 264 336 264 177C264 68 240 19 193 19C168 19 143 38 143 64C143 90 147 131 205 460C263 789 278 841 291 869C304 898 332 899 332 912V920Z"/>
<path transform="translate(1372 954) scale(1,-1)" d="M178 927C91 927 38 850 38 691C38 543 78 465 157 465H179C181 465 184 462 184 460C184 458 181 455 179 455H157C78 455 38 377 38 229C38 70 91 -7 178 -7C249 -7 300 41 300 90C300 135 250 139 250 224C250 337 280 379 280 391C280 397 265 400 249 400C234 400 218 398 218 392C218 380 233 337 233 189C233 65 212 13 178 13C132 13 110 88 110 229C110 364 133 441 184 441C242 441 258 430 268 430C274 430 276 446 276 460C276 474 274 490 268 490C256 490 242 479 184 479C133 479 110 556 110 691C110 832 132 907 178 907C212 907 233 855 233 731C233 583 218 540 218 528C218 522 234 520 249 520C265 520 280 523 280 529C280 541 250 583 250 696C250 781 300 785 300 830C300 879 249 927 178 927Z"/>
<path transform="translate(1692 954) scale(1,-1)" d="M163 901C206 901 234 815 234 692C234 557 209 479 154 479H126C126 792 128 843 134 869C139 893 151 901 163 901ZM154 455C152 455 149 458 149 460C149 462 152 465 154 465H172C251 465 307 544 307 692C307 852 242 920 170 920H20V912C20 899 42 898 50 869C58 841 64 789 64 460C64 131 58 79 50 51C42 22 20 21 20 8V0H170V8C170 21 148 22 140 51C132 77 126 129 126 441H149C183 441 190 401 193 340L206 72C208 38 223 -2 263 -2C317 -2 325 68 325 115H308C308 87 302 63 292 63C282 63 278 78 277 101L264 325C259 407 240 455 172 455Z"/>
<path transform="translate(2037 954) scale(1,-1)" d="M80 920C37 920 10 905 10 872C10 827 66 789 66 684C66 555 36 495 36 483C36 477 51 474 67 474C82 474 98 476 98 482C98 494 83 556 83 720C83 829 89 901 121 901C142 901 144 882 149 846C152 820 155 789 155 460C155 131 149 79 141 51C133 22 111 21 111 8V0H262V8C262 21 240 22 232 51C224 79 218 131 218 460C218 789 221 820 224 846C229 882 231 901 252 901C284 901 289 829 289 720C289 556 274 494 274 482C274 476 291 474 306 474C322 474 337 477 337 483C337 495 307 555 307 684C307 789 363 827 363 872C363 905 336 920 293 920Z"/>
<path transform="translate(2420 954) scale(1,-1)" d="M178 927C91 927 38 850 38 691C38 543 78 465 157 465H179C181 465 184 462 184 460C184 458 181 455 179 455H157C78 455 38 377 38 229C38 70 91 -7 178 -7C249 -7 300 41 300 90C300 135 250 139 250 224C250 337 280 379 280 391C280 397 265 400 249 400C234 400 218 398 218 392C218 380 233 337 233 189C233 65 212 13 178 13C132 13 110 88 110 229C110 364 133 441 184 441C242 441 258 430 268 430C274 430 276 446 276 460C276 474 274 490 268 490C256 490 242 479 184 479C133 479 110 556 110 691C110 832 132 907 178 907C212 907 233 855 233 731C233 583 218 540 218 528C218 522 234 520 249 520C265 520 280 523 280 529C280 541 250 583 250 696C250 781 300 785 300 830C300 879 249 927 178 927Z"/>
</g></svg>
